<?xml version="1.0" encoding="UTF-8"?>
<svg version="1.1" xmlns="http://www.w3.org/2000/svg" width="477" height="95">
<path d="M0 0 C157.41 0 314.82 0 477 0 C477 31.35 477 62.7 477 95 C319.59 95 162.18 95 0 95 C0 63.65 0 32.3 0 0 Z " fill="#FCFCFC" transform="translate(0,0)"/>
<path d="M0 0 C0.96035156 -0.020625 1.92070312 -0.04125 2.91015625 -0.0625 C11.65012087 -0.10993536 18.89764657 1.14173883 25.4375 7.3125 C26.19160156 8.00472656 26.94570313 8.69695313 27.72265625 9.41015625 C29.375 11.25 29.375 11.25 29.375 13.25 C30.035 12.92 30.695 12.59 31.375 12.25 C31.33375 11.528125 31.2925 10.80625 31.25 10.0625 C31.375 7.25 31.375 7.25 33.375 2.25 C45.915 2.25 58.455 2.25 71.375 2.25 C71.375 17.25 71.375 17.25 70.375 24.25 C68.95844207 24.2772415 67.54172955 24.29650467 66.125 24.3125 C64.94164062 24.32990234 64.94164062 24.32990234 63.734375 24.34765625 C61.46808998 24.25385306 59.5461105 23.88241063 57.375 23.25 C57.375 25.56 57.375 27.87 57.375 30.25 C61.335 30.25 65.295 30.25 69.375 30.25 C69.045 33.55 68.715 36.85 68.375 40.25 C64.745 39.92 61.115 39.59 57.375 39.25 C57.375 42.22 57.375 45.19 57.375 48.25 C58.695 47.92 60.015 47.59 61.375 47.25 C63.12386981 47.18375493 64.87502748 47.16447405 66.625 47.1875 C67.51703125 47.19652344 68.4090625 47.20554688 69.328125 47.21484375 C70.00359375 47.22644531 70.6790625 47.23804688 71.375 47.25 C71.4560206 49.35353495 71.51419907 51.45795952 71.5625 53.5625 C71.59730469 54.73425781 71.63210938 55.90601563 71.66796875 57.11328125 C71.375 60.25 71.375 60.25 70.32617188 61.92773438 C67.34977543 63.94477181 64.3301013 63.61896461 60.86328125 63.54296875 C60.13505661 63.53872391 59.40683197 63.53447906 58.65653992 63.53010559 C56.33314873 63.51332733 54.0106285 63.47567855 51.6875 63.4375 C50.11134066 63.42245197 48.53516771 63.40876377 46.95898438 63.39648438 C43.09732123 63.36342685 39.23630822 63.31165194 35.375 63.25 C33.64928639 60.23454253 33.09402341 57.9446087 32.9609375 54.484375 C32.90292969 53.15019531 32.90292969 53.15019531 32.84375 51.7890625 C32.79734375 50.40847656 32.79734375 50.40847656 32.75 49 C32.71132813 48.06414062 32.67265625 47.12828125 32.6328125 46.1640625 C32.53875156 43.85956946 32.45310601 41.55507987 32.375 39.25 C28.88531405 42.60847678 28.88531405 42.60847678 25.94140625 46.4296875 C23.73743391 48.99091221 21.52610004 49.44567216 18.3125 50.375 C13.90334261 51.55672631 13.90334261 51.55672631 10.375 54.25 C10.045 55.24 9.715 56.23 9.375 57.25 C8.375 60.25 8.375 60.25 6.375 62.25 C3.38115017 62.42283478 0.49106312 62.48196807 -2.5 62.4375 C-3.31597656 62.43685547 -4.13195312 62.43621094 -4.97265625 62.43554688 C-11.15270891 62.39017944 -11.15270891 62.39017944 -13.76611328 61.61450195 C-14.68626221 61.43407349 -14.68626221 61.43407349 -15.625 61.25 C-16.615 62.24 -16.615 62.24 -17.625 63.25 C-19.9467926 63.49723816 -19.9467926 63.49723816 -22.88500977 63.49291992 C-23.98277237 63.49599655 -25.08053497 63.49907318 -26.21156311 63.50224304 C-27.40116135 63.49505753 -28.59075958 63.48787201 -29.81640625 63.48046875 C-31.6397776 63.47978142 -31.6397776 63.47978142 -33.49998474 63.4790802 C-36.07316055 63.47605496 -38.64633448 63.46816063 -41.21948242 63.45581055 C-45.17438184 63.43756053 -49.12904727 63.43530075 -53.08398438 63.43554688 C-55.57812704 63.43063169 -58.07226811 63.42480336 -60.56640625 63.41796875 C-61.75802872 63.41685593 -62.94965118 63.4157431 -64.17738342 63.41459656 C-65.27199387 63.40821671 -66.36660431 63.40183685 -67.49438477 63.39526367 C-68.46320084 63.39145187 -69.43201691 63.38764008 -70.43019104 63.38371277 C-72.625 63.25 -72.625 63.25 -73.625 62.25 C-76.79004152 62.09928374 -79.68801521 62.25980461 -82.82128906 62.74731445 C-86.85234617 63.2800453 -90.8021556 63.41169833 -94.859375 63.41796875 C-95.61921692 63.42129715 -96.37905884 63.42462555 -97.16192627 63.42805481 C-98.75524292 63.43308476 -100.34856995 63.43546436 -101.94189453 63.43530273 C-104.38200902 63.43750633 -106.82168301 63.45574943 -109.26171875 63.47460938 C-110.81510263 63.4775407 -112.36848864 63.47952724 -113.921875 63.48046875 C-115.01408356 63.49124702 -115.01408356 63.49124702 -116.12835693 63.50224304 C-119.8502297 63.48535158 -121.44445975 63.37036016 -124.625 61.25 C-125.02563477 58.9309082 -125.02563477 58.9309082 -125.06640625 56.05078125 C-125.09283203 55.00599609 -125.11925781 53.96121094 -125.14648438 52.88476562 C-125.16001953 51.78841797 -125.17355469 50.69207031 -125.1875 49.5625 C-125.31879829 39.73170547 -125.31879829 39.73170547 -127.625 30.25 C-128.615 30.91 -129.605 31.57 -130.625 32.25 C-132.9449715 32.53947951 -135.23068395 32.62656001 -137.56640625 32.7109375 C-139.78616072 33.04928529 -139.78616072 33.04928529 -140.86328125 35.09765625 C-142.16788449 38.78399668 -142.625 42.35235588 -142.625 46.25 C-135.59717958 47.2890717 -135.59717958 47.2890717 -128.625 46.25 C-129.51465517 55.14655172 -129.51465517 55.14655172 -131.625 58.25 C-136.80887957 60.84193978 -144.876332 59.97770491 -150.33984375 58.53125 C-158.86862913 54.91562816 -163.73721198 49.5212303 -167.625 41.25 C-169.91136763 34.39089712 -170.16987854 23.33109471 -167.0625 16.625 C-165.94140625 14.8828125 -165.94140625 14.8828125 -164.625 13.25 C-164.13902344 12.62867188 -163.65304688 12.00734375 -163.15234375 11.3671875 C-158.3475534 5.93766082 -152.7416838 2.61749663 -145.41552734 2.09130859 C-140.14459145 1.91902815 -134.89321016 2.04340352 -129.625 2.25 C-129.13 4.725 -129.13 4.725 -128.625 7.25 C-127.965 6.92 -127.305 6.59 -126.625 6.25 C-126.295 4.93 -125.965 3.61 -125.625 2.25 C-117.375 2.25 -109.125 2.25 -100.625 2.25 C-99.5 11.25 -99.5 11.25 -99.51147461 14.921875 C-99.51158791 16.15224487 -99.51158791 16.15224487 -99.51170349 17.4074707 C-99.51686478 18.26300537 -99.52202606 19.11854004 -99.52734375 20 C-99.5287587 20.89871826 -99.53017365 21.79743652 -99.53163147 22.72338867 C-99.53718417 25.56562775 -99.54972763 28.40778513 -99.5625 31.25 C-99.56752112 33.18880094 -99.57208295 35.12760312 -99.57617188 37.06640625 C-99.58713806 41.79430183 -99.60436956 46.52213711 -99.625 51.25 C-96.28311085 39.78422294 -93.47163562 28.36910997 -91.3125 16.625 C-91.04693211 15.21340826 -90.78065717 13.80194935 -90.51367188 12.390625 C-89.8747476 9.01204093 -89.25012807 5.63127693 -88.625 2.25 C-81.035 2.25 -73.445 2.25 -65.625 2.25 C-63.88621802 9.86462662 -62.15920625 17.48178993 -60.44311523 25.1015625 C-59.85749019 27.69409387 -59.26863819 30.28589848 -58.67651367 32.87695312 C-57.82664996 36.5984016 -56.98837234 40.32229742 -56.15234375 44.046875 C-55.88469711 45.20741394 -55.61705048 46.36795288 -55.34129333 47.56365967 C-55.10096878 48.64447815 -54.86064423 49.72529663 -54.61303711 50.83886719 C-54.39763779 51.78928894 -54.18223846 52.73971069 -53.96031189 53.71893311 C-53.62413754 56.25651022 -53.81252354 57.84649094 -54.625 60.25 C-53.965 59.92 -53.305 59.59 -52.625 59.25 C-52.65529297 58.27353516 -52.68558594 57.29707031 -52.71679688 56.29101562 C-52.83108153 52.58584729 -52.94209885 48.88058641 -53.05224609 45.17529297 C-53.09989016 43.58705084 -53.14836127 41.99883325 -53.19775391 40.41064453 C-53.45572362 32.09770208 -53.67545415 23.78593184 -53.71875 15.46875 C-53.72583984 14.22029297 -53.73292969 12.97183594 -53.74023438 11.68554688 C-53.625 8.25 -53.625 8.25 -52.625 2.25 C-44.375 2.25 -36.125 2.25 -27.625 2.25 C-27.74633823 6.55105296 -27.86958971 10.85197445 -27.99731445 15.15283203 C-28.04003532 16.6091817 -28.08173898 18.06556164 -28.12231445 19.52197266 C-28.39067529 29.12332707 -28.8533121 38.67349525 -29.625 48.25 C-29.07328125 48.08628906 -28.5215625 47.92257813 -27.953125 47.75390625 C-25.35885993 47.19239586 -23.02664589 47.15260992 -20.375 47.1875 C-19.48296875 47.19652344 -18.5909375 47.20554688 -17.671875 47.21484375 C-16.99640625 47.22644531 -16.3209375 47.23804688 -15.625 47.25 C-15.63547363 46.06970215 -15.64594727 44.8894043 -15.65673828 43.67333984 C-15.69303962 39.27883965 -15.71593733 34.88435263 -15.73486328 30.48974609 C-15.74489779 28.59063485 -15.75852843 26.69153896 -15.77587891 24.79248047 C-15.80023951 22.05692749 -15.81150877 19.32157947 -15.8203125 16.5859375 C-15.83063507 15.74195404 -15.84095764 14.89797058 -15.85159302 14.02841187 C-15.8524628 9.41999519 -15.64020487 5.50060038 -13.625 1.25 C-9.13144066 -0.24785311 -4.70755951 0.02467921 0 0 Z " fill="#D2D7D8" transform="translate(266.625,16.75)"/>
<path d="M0 0 C7.34502032 3.73163823 12.73614304 8.98256897 16.1875 16.4375 C18.40091665 25.21638902 18.37834495 34.99153657 14.51171875 43.25390625 C10.66847268 49.59129431 5.19276465 54.00202481 -1.8125 56.4375 C-6.6801505 57.49659975 -11.41861323 57.62067128 -16.375 57.625 C-17.11685547 57.63724609 -17.85871094 57.64949219 -18.62304688 57.66210938 C-19.70875977 57.66500977 -19.70875977 57.66500977 -20.81640625 57.66796875 C-21.78815796 57.67413208 -21.78815796 57.67413208 -22.77954102 57.68041992 C-25.34589734 57.37376392 -27.45509541 56.47003145 -29.8125 55.4375 C-30.10189807 49.85504199 -30.38651091 44.27236626 -30.66699219 38.68945312 C-30.76273293 36.7964851 -30.85970434 34.90357886 -30.95800781 33.01074219 C-31.52158706 22.14171384 -31.97811549 11.32441856 -31.8125 0.4375 C-22.93076637 -3.5070954 -9.11250536 -3.32792124 0 0 Z " fill="#05CEFD" transform="translate(372.8125,18.5625)"/>
<path d="M0 0 C6.85074105 4.15371247 10.41057528 9.96117136 12.87109375 17.4765625 C15.33154292 28.01340131 13.45346643 38.10982444 7.8125 47.25 C4.32179901 52.16831934 0.36453274 55.50348909 -5.4375 57.4375 C-12.84515542 58.31618585 -18.46050915 57.97971031 -24.46875 53.33203125 C-31.53294441 46.53414576 -35.45627962 37.75121606 -35.75 27.9375 C-35.35848712 18.68800828 -33.54230686 10.71694499 -26.953125 3.90234375 C-19.67391786 -2.53262545 -8.94515001 -4.02359064 0 0 Z " fill="#04CEFE" transform="translate(82.4375,18.5625)"/>
<path d="M0 0 C1.43375977 -0.02416992 1.43375977 -0.02416992 2.89648438 -0.04882812 C12.97442973 -0.05569789 20.07578503 2.11130924 27.42578125 9.140625 C31.72099325 14.08500983 32.93076674 19.54898086 32.65234375 26.01953125 C31.559156 33.39540719 28.07953083 38.33637534 22.328125 42.9375 C17.7692566 46.04742573 13.73698933 46.57080902 8.3125 46.3125 C8.3125 49.9425 8.3125 53.5725 8.3125 57.3125 C1.3825 57.3125 -5.5475 57.3125 -12.6875 57.3125 C-12.97530674 51.56921362 -13.26109324 45.82589442 -13.54199219 40.08227539 C-13.63785498 38.13397666 -13.73483267 36.18573241 -13.83300781 34.23754883 C-14.36888541 23.58834852 -14.86804363 12.97836583 -14.6875 2.3125 C-9.92818553 -0.44325347 -5.36870774 -0.01774193 0 0 Z " fill="#05CFFE" transform="translate(266.6875,16.6875)"/>
<path d="M0 0 C7.59 0 15.18 0 23 0 C24.57256684 6.86721559 26.14114993 13.73509461 27.69970703 20.60546875 C28.2309134 22.94161 28.76442219 25.27722896 29.30029297 27.61230469 C30.07086784 30.97195394 30.83309844 34.33340452 31.59375 37.6953125 C31.83436157 38.73615997 32.07497314 39.77700745 32.32287598 40.84939575 C33.39981532 45.64445489 34.32467004 50.04878187 34 55 C30.89614789 55.11613204 27.79285338 55.18722029 24.6875 55.25 C23.80642578 55.28351563 22.92535156 55.31703125 22.01757812 55.3515625 C15.47123501 55.45112665 15.47123501 55.45112665 12.89453125 52.984375 C12.59933594 52.32953125 12.30414063 51.6746875 12 51 C11.236875 51.66 10.47375 52.32 9.6875 53 C7 55 7 55 4 55 C2.3125 52.5 2.3125 52.5 1 50 C0.505 52.475 0.505 52.475 0 55 C-3.63 55 -7.26 55 -11 55 C-10.31030513 48.11136084 -8.80337435 41.53752044 -7.1875 34.8125 C-4.45913399 23.25522721 -2.13871017 11.68064784 0 0 Z " fill="#06CFFD" transform="translate(429,19)"/>
<path d="M0 0 C7.59 0 15.18 0 23 0 C24.71032449 7.67182122 26.41928347 15.34394482 28.12695312 23.01635742 C28.7084855 25.62877353 29.29054556 28.24107126 29.87304688 30.85327148 C30.70801911 34.59857638 31.54164615 38.34417846 32.375 42.08984375 C32.63748535 43.26586655 32.8999707 44.44188934 33.17041016 45.65354919 C33.53078369 47.27511681 33.53078369 47.27511681 33.8984375 48.92944336 C34.11161621 49.88652695 34.32479492 50.84361053 34.54443359 51.82969666 C35 54 35 54 35 55 C31.72946483 55.11608726 28.4594582 55.18720711 25.1875 55.25 C24.25873047 55.28351563 23.32996094 55.31703125 22.37304688 55.3515625 C21.48037109 55.36445312 20.58769531 55.37734375 19.66796875 55.390625 C18.43469849 55.4220459 18.43469849 55.4220459 17.17651367 55.45410156 C15 55 15 55 13.20825195 52.97558594 C12.80952881 52.32364258 12.41080566 51.67169922 12 51 C11.236875 51.66 10.47375 52.32 9.6875 53 C7 55 7 55 4 55 C2.3125 52.5 2.3125 52.5 1 50 C0.505 52.475 0.505 52.475 0 55 C-3.63 55 -7.26 55 -11 55 C-10.31030513 48.11136084 -8.80337435 41.53752044 -7.1875 34.8125 C-4.45913399 23.25522721 -2.13871017 11.68064784 0 0 Z " fill="#06CFFD" transform="translate(178,19)"/>
<path d="M0 0 C12.21 0 24.42 0 37 0 C37 15 37 15 36 22 C34.58344207 22.0272415 33.16672955 22.04650467 31.75 22.0625 C30.56664062 22.07990234 30.56664062 22.07990234 29.359375 22.09765625 C27.09308998 22.00385306 25.1711105 21.63241063 23 21 C23 23.31 23 25.62 23 28 C26.96 28 30.92 28 35 28 C34.67 31.3 34.34 34.6 34 38 C30.37 37.67 26.74 37.34 23 37 C23 39.97 23 42.94 23 46 C24.98 45.505 24.98 45.505 27 45 C28.74886981 44.93375493 30.50002748 44.91447405 32.25 44.9375 C33.14203125 44.94652344 34.0340625 44.95554688 34.953125 44.96484375 C35.62859375 44.97644531 36.3040625 44.98804688 37 45 C36.69201674 46.48011371 36.378482 47.95907325 36.0625 49.4375 C35.88847656 50.26121094 35.71445312 51.08492187 35.53515625 51.93359375 C35 54 35 54 34 55 C31.6243148 55.0883967 29.27791326 55.11530305 26.90234375 55.09765625 C25.83905602 55.09553383 25.83905602 55.09553383 24.75428772 55.09336853 C22.48198288 55.08775443 20.20977525 55.07519963 17.9375 55.0625 C16.40039204 55.05748681 14.86328255 55.05292359 13.32617188 55.04882812 C9.55074358 55.03778042 5.77538829 55.02050641 2 55 C1.35830997 50.79068307 0.85448654 46.6566352 0.68359375 42.40234375 C0.6206311 40.84362549 0.6206311 40.84362549 0.55639648 39.25341797 C0.51716064 38.15916504 0.4779248 37.06491211 0.4375 35.9375 C0.3950415 34.8045752 0.35258301 33.67165039 0.30883789 32.50439453 C-0.06694382 21.66343257 -0.07231207 10.84680979 0 0 Z " fill="#04CEFD" transform="translate(301,19)"/>
<path d="M0 0 C0.84800767 7.692641 1.12152487 15.26291674 1 23 C-0.10408203 23.14695312 -0.10408203 23.14695312 -1.23046875 23.296875 C-8.89347687 24.4307831 -8.89347687 24.4307831 -15 29 C-16.53214888 32.06429776 -16.22938548 34.6165642 -16 38 C-14.69498246 41.09083103 -13.68761533 42.55507243 -10.875 44.375 C-6.79043517 45.26294888 -3.09318605 44.65990363 1 44 C0.11034483 52.89655172 0.11034483 52.89655172 -2 56 C-7.18387957 58.59193978 -15.251332 57.72770491 -20.71484375 56.28125 C-29.24362913 52.66562816 -34.11221198 47.2712303 -38 39 C-40.28636763 32.14089712 -40.54487854 21.08109471 -37.4375 14.375 C-36.31640625 12.6328125 -36.31640625 12.6328125 -35 11 C-34.51402344 10.37867188 -34.02804688 9.75734375 -33.52734375 9.1171875 C-24.34353991 -1.26072795 -12.78882285 -0.50152246 0 0 Z " fill="#04CEFE" transform="translate(137,19)"/>
<path d="M0 0 C0.7115625 -0.00386719 1.423125 -0.00773437 2.15625 -0.01171875 C5.67927559 -0.00514594 8.55573402 0.26393351 12 1.125 C12 8.715 12 16.305 12 24.125 C10.02 24.125 8.04 24.125 6 24.125 C4.74519842 25.18268036 4.74519842 25.18268036 4.625 27.5625 C5.00593513 31.18138376 5.78892317 32.86302581 7.5 36 C10.04705895 40.85396663 10.89337614 43.67540555 10 49.125 C7.68099942 53.83872363 4.78198487 56.86833298 0 59.125 C-3.55078125 59.41796875 -3.55078125 59.41796875 -7.3125 59.3125 C-8.56675781 59.28542969 -9.82101563 59.25835937 -11.11328125 59.23046875 C-12.06589844 59.19566406 -13.01851562 59.16085938 -14 59.125 C-15.38076751 55.1174065 -16.3998116 51.32631882 -17 47.125 C-16.36191406 47.13660156 -15.72382813 47.14820313 -15.06640625 47.16015625 C-14.24011719 47.16917969 -13.41382813 47.17820313 -12.5625 47.1875 C-11.32693359 47.20490234 -11.32693359 47.20490234 -10.06640625 47.22265625 C-8.00836062 47.35767348 -8.00836062 47.35767348 -7 46.125 C-6.8386942 43.06018979 -7.01849759 41.06950722 -8 38.125 C-9.31440595 37.42175096 -10.65095485 36.75927077 -12 36.125 C-17.10752687 31.86323564 -21.48252046 27.38773767 -22.3125 20.55078125 C-22.59117184 14.16745446 -21.93441754 10.19832788 -18 5.125 C-12.0143979 0.38639833 -7.44530249 -0.0404636 0 0 Z " fill="#05CFFE" transform="translate(33,16.875)"/>
<path d="M0 0 C8.25 0 16.5 0 25 0 C24.87866177 4.30105296 24.75541029 8.60197445 24.62768555 12.90283203 C24.58496468 14.3591817 24.54326102 15.81556164 24.50268555 17.27197266 C24.23432471 26.87332707 23.7716879 36.42349525 23 46 C23.91023926 45.75552124 23.91023926 45.75552124 24.83886719 45.50610352 C27.37046976 44.91324178 29.65284585 44.90332692 32.25 44.9375 C33.8175 44.958125 35.385 44.97875 37 45 C36.34 48.3 35.68 51.6 35 55 C24.11 55 13.22 55 2 55 C1.71076662 49.89967919 1.42459109 44.79935031 1.14550781 39.69848633 C1.05017755 37.97150503 0.95323215 36.24461197 0.85449219 34.51782227 C0.19673666 22.99032108 -0.09960115 11.54750804 0 0 Z " fill="#05CFFD" transform="translate(214,19)"/>
<path d="M0 0 C8.25 0 16.5 0 25 0 C25.07997378 11.99606744 25.01178195 23.94925955 24.5625 35.9375 C24.52326416 37.03175293 24.48402832 38.12600586 24.44360352 39.25341797 C24.40162842 40.29256348 24.35965332 41.33170898 24.31640625 42.40234375 C24.27974854 43.31491943 24.24309082 44.22749512 24.20532227 45.16772461 C23.96657734 48.4610419 23.46696762 51.73122666 23 55 C16.07 55 9.14 55 2 55 C1.7130633 48.77449835 1.42753588 42.54896373 1.14550781 36.32324219 C1.04931546 34.20894724 0.95232409 32.09468847 0.85449219 29.98046875 C0.71334945 26.92717698 0.57515901 23.87376308 0.4375 20.8203125 C0.39375244 19.88760529 0.35000488 18.95489807 0.30493164 17.993927 C0.26489014 17.09374847 0.22484863 16.19356995 0.18359375 15.26611328 C0.14806396 14.48889923 0.11253418 13.71168518 0.07592773 12.91091919 C-0.03629117 8.60866834 0 4.30371415 0 0 Z " fill="#05CEFD" transform="translate(141,19)"/>
<path d="M0 0 C8.25 0 16.5 0 25 0 C25.10695878 12.40053353 24.70778767 24.6845287 24 37.0625 C23.9032207 38.81573179 23.80686453 40.56898699 23.7109375 42.32226562 C23.47958018 46.54852565 23.23964202 50.7741698 23 55 C16.07 55 9.14 55 2 55 C1.71115729 49.73893643 1.42508391 44.47785463 1.14550781 39.21630859 C1.05003268 37.43399941 0.95307724 35.65176878 0.85449219 33.86962891 C0.23005838 22.55973092 -0.1053779 11.3281242 0 0 Z " fill="#05CEFD" transform="translate(392,19)"/>
<path d="M0 0 C3.42669253 3.42669253 3.48497581 8.31262795 4 13 C3.625 16.625 3.625 16.625 3 20 C2.1636804 29.65403714 4.58699603 38.15801531 10.28515625 46.015625 C13.92763925 50.23061672 17.32578541 52.59634497 22.8984375 53.4375 C29.33653835 53.69697006 34.86344399 53.1023501 40 49 C46.48259958 42.1925321 49.25837617 34.81740505 50.0625 25.625 C50.29411718 23.05198539 50.59773613 20.55661037 51 18 C51.99 17.505 51.99 17.505 53 17 C53.02578125 18.05058594 53.0515625 19.10117187 53.078125 20.18359375 C53.36366797 28.14749164 53.69467407 35.04643402 58 42 C58.556875 42.9075 59.11375 43.815 59.6875 44.75 C64.55768931 49.48856257 71.12215287 53.1494575 78.01171875 53.09765625 C78.76904297 53.09443359 79.52636719 53.09121094 80.30664062 53.08789062 C81.09232422 53.07951172 81.87800781 53.07113281 82.6875 53.0625 C83.48478516 53.05798828 84.28207031 53.05347656 85.10351562 53.04882812 C87.06904257 53.0370585 89.03453085 53.01912348 91 53 C90.34 54.32 89.68 55.64 89 57 C77.98075022 57.56428591 70.59374521 56.85925192 61.875 49.9375 C57.23317965 45.66851663 54.13704231 40.42120124 51 35 C50.65388672 36.08667969 50.65388672 36.08667969 50.30078125 37.1953125 C47.13427673 46.58218359 43.37575622 51.62687337 35 57 C34.34 57 33.68 57 33 57 C33 57.66 33 58.32 33 59 C30.17504653 59.94165116 28.25280965 60.19460955 25.3125 60.25 C24.10013672 60.28867188 24.10013672 60.28867188 22.86328125 60.328125 C18.19232389 59.79284476 13.85540738 58.83443746 10.4230957 55.44091797 C9.00989255 53.61696624 7.74074687 51.75750728 6.5 49.8125 C6.05914062 49.15830078 5.61828125 48.50410156 5.1640625 47.83007812 C4.09104257 46.23221148 3.04285861 44.61771305 2 43 C1.7009375 43.77730469 1.401875 44.55460937 1.09375 45.35546875 C0.00938606 47.97730584 -1.11911608 49.88400558 -3 52 C-3.66 52 -4.32 52 -5 52 C-5.226875 52.598125 -5.45375 53.19625 -5.6875 53.8125 C-7.41738789 56.69564648 -8.97416789 57.53455607 -12 59 C-15.4453125 59.3984375 -15.4453125 59.3984375 -19.125 59.375 C-20.95417969 59.38660156 -20.95417969 59.38660156 -22.8203125 59.3984375 C-26 59 -26 59 -27.91796875 57.73828125 C-29.86637299 54.60817335 -29.1771266 51.60157418 -29 48 C-28.34 48 -27.68 48 -27 48 C-26.67 49.65 -26.34 51.3 -26 53 C-16.82404098 53.9043502 -16.82404098 53.9043502 -8.3125 51.3125 C-4.67931692 47.67931692 -3.20033064 45.47743848 -2.5 40.3125 C-2.63941395 35.70312625 -4.71805614 32.31483996 -6.87890625 28.3359375 C-8.28991732 25.3959214 -8.56180639 23.21032226 -8 20 C-7.34 19.34 -6.68 18.68 -6 18 C-4.35 18 -2.7 18 -1 18 C-0.67 12.06 -0.34 6.12 0 0 Z " fill="#EEEEEE" transform="translate(45,22)"/>
<path d="M0 0 C0.33 0 0.66 0 1 0 C1 5.61 1 11.22 1 17 C2.48113281 16.97679688 3.96226562 16.95359375 5.48828125 16.9296875 C7.42968247 16.91093 9.37108913 16.89272978 11.3125 16.875 C12.28896484 16.85824219 13.26542969 16.84148437 14.27148438 16.82421875 C15.67817383 16.81455078 15.67817383 16.81455078 17.11328125 16.8046875 C17.97735596 16.79421387 18.84143066 16.78374023 19.73168945 16.77294922 C22 17 22 17 25 19 C25 18.34 25 17.68 25 17 C28.63 17 32.26 17 36 17 C36 15.35 36 13.7 36 12 C36.66 11.67 37.32 11.34 38 11 C38.66 12.98 39.32 14.96 40 17 C41.11375 16.319375 41.11375 16.319375 42.25 15.625 C44.46930578 14.31359204 46.67967822 13.11719197 49 12 C49.66 13.65 50.32 15.3 51 17 C57.27 17 63.54 17 70 17 C70.33 16.34 70.66 15.68 71 15 C71.1875 17.375 71.1875 17.375 71 20 C67.68246839 22.21168774 66.73345098 22.23136049 62.88671875 22.16015625 C61.88576172 22.14919922 60.88480469 22.13824219 59.85351562 22.12695312 C58.28633789 22.09504883 58.28633789 22.09504883 56.6875 22.0625 C47.79119817 21.83018325 47.79119817 21.83018325 39 23 C38.10796875 23.18820313 37.2159375 23.37640625 36.296875 23.5703125 C34.58792812 23.94250645 32.87959814 24.31754344 31.171875 24.6953125 C29 25 29 25 27 24 C27 23.34 27 22.68 27 22 C26.06027344 22.24363281 26.06027344 22.24363281 25.1015625 22.4921875 C20.84687134 23.1887994 16.67853262 23.14456151 12.375 23.125 C11.51648438 23.12886719 10.65796875 23.13273437 9.7734375 23.13671875 C8.5359375 23.13478516 8.5359375 23.13478516 7.2734375 23.1328125 C6.52497559 23.13168457 5.77651367 23.13055664 5.00537109 23.12939453 C3 23 3 23 0 22 C0 14.74 0 7.48 0 0 Z " fill="#D9D9D9" transform="translate(393,57)"/>
<path d="M0 0 C0.33 0 0.66 0 1 0 C1.66 18.15 2.32 36.3 3 55 C13.56 54.67 24.12 54.34 35 54 C35.66 51.36 36.32 48.72 37 46 C37.33 46 37.66 46 38 46 C38.08107583 47.93681161 38.13922475 49.8745934 38.1875 51.8125 C38.23970703 53.43091797 38.23970703 53.43091797 38.29296875 55.08203125 C38 58 38 58 36.95117188 59.6640625 C33.97815306 61.69964295 30.96076111 61.36908868 27.48828125 61.29296875 C26.76005661 61.28872391 26.03183197 61.28447906 25.28153992 61.28010559 C22.95814873 61.26332733 20.6356285 61.22567855 18.3125 61.1875 C16.73634066 61.17245197 15.16016771 61.15876377 13.58398438 61.14648438 C9.72232123 61.11342685 5.86130822 61.06165194 2 61 C0.27428639 57.98454253 -0.28097659 55.6946087 -0.4140625 52.234375 C-0.45273437 51.34492187 -0.49140625 50.45546875 -0.53125 49.5390625 C-0.57765625 48.15847656 -0.57765625 48.15847656 -0.625 46.75 C-0.66367187 45.81414062 -0.70234375 44.87828125 -0.7421875 43.9140625 C-0.83624844 41.60956946 -0.92189399 39.30507987 -1 37 C-3.91261983 39.87448405 -6.64151525 42.64846904 -9 46 C-10.32 45.67 -11.64 45.34 -13 45 C-12.45730469 44.63390625 -11.91460937 44.2678125 -11.35546875 43.890625 C-5.70054134 39.61122048 -3.7418561 35.92939024 -2.390625 29 C-1.70001528 23.69611737 -1.6835374 18.89877561 -2.5625 13.625 C-3 11 -3 11 -2 8 C-1.65657551 6.66923011 -1.32380126 5.33568021 -1 4 C-0.5 2 -0.5 2 0 0 Z " fill="#D5D7D8" transform="translate(300,19)"/>
<path d="M0 0 C0.33 0 0.66 0 1 0 C1.66 13.53 2.32 27.06 3 41 C12.39183328 43.34795832 26.59396297 43.81366593 35.171875 38.70703125 C42.02135357 33.84490139 45.33105135 28.87339852 48 21 C48.33 21 48.66 21 49 21 C50.26713717 26.80771203 50.10695183 30.59859634 47.42578125 35.9609375 C44.96561988 39.47930527 41.7894351 41.13973186 38 43 C37.31164062 43.36867187 36.62328125 43.73734375 35.9140625 44.1171875 C28.5278193 47.99425769 22.4330931 49.28765845 14.125 49.125 C13.24585938 49.11597656 12.36671875 49.10695312 11.4609375 49.09765625 C9.3071729 49.07424577 7.15354986 49.0383801 5 49 C5 48.34 5 47.68 5 47 C4.360625 46.690625 3.72125 46.38125 3.0625 46.0625 C1 45 1 45 0 44 C-0.0927833 42.61839885 -0.11747043 41.23211962 -0.11352539 39.84741211 C-0.11341209 38.52615578 -0.11341209 38.52615578 -0.11329651 37.1782074 C-0.10555458 35.74227989 -0.10555458 35.74227989 -0.09765625 34.27734375 C-0.0962413 33.30213272 -0.09482635 32.32692169 -0.09336853 31.32215881 C-0.08775133 28.19390857 -0.07519593 25.06572877 -0.0625 21.9375 C-0.05748722 19.82226666 -0.05292393 17.70703219 -0.04882812 15.59179688 C-0.03777631 10.39450704 -0.02102146 5.19725855 0 0 Z " fill="#D3D3D3" transform="translate(341,33)"/>
<path d="M0 0 C0.33 0 0.66 0 1 0 C0.99476318 1.23153809 0.98952637 2.46307617 0.98413086 3.73193359 C0.96606447 8.29035722 0.95456196 12.84877767 0.94506836 17.40722656 C0.9400319 19.38216687 0.93320249 21.35710343 0.92456055 23.33203125 C0.91246492 26.16667605 0.9067649 29.00127166 0.90234375 31.8359375 C0.89460182 33.16569107 0.89460182 33.16569107 0.88670349 34.52230835 C0.74597908 38.89771239 0.74597908 38.89771239 2 43 C1.67 44.32 1.34 45.64 1 47 C4.63 47 8.26 47 12 47 C12 45.35 12 43.7 12 42 C12.66 41.67 13.32 41.34 14 41 C14.66 42.98 15.32 44.96 16 47 C17.11375 46.319375 17.11375 46.319375 18.25 45.625 C20.46930578 44.31359204 22.67967822 43.11719197 25 42 C25.66 43.65 26.32 45.3 27 47 C32.61 47 38.22 47 44 47 C43.67 47.99 43.34 48.98 43 50 C36.7834094 50.10636752 30.74648407 49.92765333 24.5703125 49.22265625 C20.05208311 48.83125948 15.5309307 48.92247457 11 49 C10.505 49.99 10.505 49.99 10 51 C9.14535156 50.98839844 8.29070312 50.97679687 7.41015625 50.96484375 C6.30542969 50.95582031 5.20070312 50.94679687 4.0625 50.9375 C2.96035156 50.92589844 1.85820312 50.91429687 0.72265625 50.90234375 C-1.91447634 50.68737429 -1.91447634 50.68737429 -3 52 C-5.86267567 52.07325168 -8.700719 52.09238205 -11.5625 52.0625 C-12.36880859 52.05798828 -13.17511719 52.05347656 -14.00585938 52.04882812 C-16.00393756 52.03700518 -18.00197783 52.01906914 -20 52 C-20.66 50.35 -21.32 48.7 -22 47 C-15.4 47 -8.8 47 -2 47 C-1.90912109 43.67035156 -1.90912109 43.67035156 -1.81640625 40.2734375 C-1.75422102 38.07224424 -1.69099953 35.87108293 -1.62768555 33.66992188 C-1.58494133 32.16506928 -1.54323809 30.66018668 -1.50268555 29.15527344 C-1.23922899 19.41063322 -0.78877418 9.71885928 0 0 Z " fill="#D2D2D2" transform="translate(166,27)"/>
<path d="M0 0 C0.33 0 0.66 0 1 0 C1.02578125 1.05058594 1.0515625 2.10117187 1.078125 3.18359375 C1.36366797 11.14749164 1.69467407 18.04643402 6 25 C6.556875 25.9075 7.11375 26.815 7.6875 27.75 C12.55768931 32.48856257 19.12215287 36.1494575 26.01171875 36.09765625 C26.76904297 36.09443359 27.52636719 36.09121094 28.30664062 36.08789062 C29.09232422 36.07951172 29.87800781 36.07113281 30.6875 36.0625 C31.48478516 36.05798828 32.28207031 36.05347656 33.10351562 36.04882812 C35.06904257 36.0370585 37.03453085 36.01912348 39 36 C38.34 37.32 37.68 38.64 37 40 C25.98075022 40.56428591 18.59374521 39.85925192 9.875 32.9375 C5.23317965 28.66851663 2.13704231 23.42120124 -1 18 C-1.23074219 18.72445312 -1.46148437 19.44890625 -1.69921875 20.1953125 C-4.67696317 29.02261809 -8.52340715 34.80269872 -16.46484375 39.8671875 C-21.95966596 42.32250097 -27.47187492 41.38894232 -33.25 40.5 C-37.43712263 38.21611493 -40.08117067 34.71330359 -43 31 C-42.67 30.34 -42.34 29.68 -42 29 C-41.44570313 29.42152344 -40.89140625 29.84304687 -40.3203125 30.27734375 C-39.59585938 30.82519531 -38.87140625 31.37304688 -38.125 31.9375 C-37.04605469 32.75541016 -37.04605469 32.75541016 -35.9453125 33.58984375 C-31.0968568 37.10448734 -25.78859659 36.50177533 -20 36 C-14.13065873 34.47435997 -10.79726049 31.11940212 -7.32421875 26.29296875 C-3.9230098 20.40355975 -2.50394003 15.32136145 -1.875 8.625 C-1.11160714 1.11160714 -1.11160714 1.11160714 0 0 Z " fill="#B2BBBD" transform="translate(97,39)"/>
<path d="M0 0 C0.66 0.99 1.32 1.98 2 3 C10.50515415 15.70092905 10.50515415 15.70092905 24 22 C28.67891686 22.23192907 33.31999495 22.1774721 38 22 C38.28875 20.9275 38.5775 19.855 38.875 18.75 C39.72820109 15.90599636 40.5636503 13.56491017 42 11 C42.33 11 42.66 11 43 11 C43.10807131 12.93627769 43.1856225 14.87427756 43.25 16.8125 C43.29640625 17.89144531 43.3428125 18.97039062 43.390625 20.08203125 C43 23 43 23 41.1875 24.80859375 C33.98576019 28.73096989 27.6698714 28.23704582 20 26 C20 25.34 20 24.68 20 24 C19.484375 23.896875 18.96875 23.79375 18.4375 23.6875 C15.13973565 22.75736134 12.13366668 21.38604488 9 20 C9 19.01 9 18.02 9 17 C8.01 17 7.02 17 6 17 C5.32880451 15.5437455 4.66318193 14.08492133 4 12.625 C3.62875 11.81289062 3.2575 11.00078125 2.875 10.1640625 C2 8 2 8 2 6 C-1.70465576 8.46977051 -1.64865547 9.86647557 -3 14 C-5.44412393 18.21400677 -7.82787539 21.41725619 -12 24 C-15.3125 24.25 -15.3125 24.25 -18 24 C-17.29875 23.443125 -16.5975 22.88625 -15.875 22.3125 C-14.92625 21.549375 -13.9775 20.78625 -13 20 C-11.96875 19.195625 -10.9375 18.39125 -9.875 17.5625 C-4.47384765 12.74842942 -2.53265736 6.62090629 0 0 Z " fill="#CED1D2" transform="translate(96,56)"/>
<path d="M0 0 C3.375 1 3.375 1 5.375 4 C6.16422414 9.95505489 5.70326373 14.87959427 2.375 20 C1.715 20.66 1.055 21.32 0.375 22 C-2.44272631 21.81821121 -3.41324553 21.23528275 -5.3125 19.125 C-8.08314207 14.63919856 -8.25202008 10.12364984 -7.625 5 C-5.51683343 0.78366685 -4.76887273 0 0 0 Z " fill="#F5F7F7" transform="translate(72.625,41)"/>
<path d="M0 0 C0.33 0 0.66 0 1 0 C2.06558578 17.33011628 3.12895271 34.65880675 4 52 C8.50234373 52.04944705 13.0045293 52.08574161 17.50708008 52.10986328 C19.03868361 52.11991935 20.57026795 52.133566 22.10180664 52.15087891 C24.30359636 52.17514498 26.50513219 52.18648688 28.70703125 52.1953125 C29.73374687 52.21079636 29.73374687 52.21079636 30.78120422 52.22659302 C34.43061661 52.22745382 35.87148502 52.08567666 39 50 C37.125 53.875 37.125 53.875 36 55 C34.28681054 55.09881593 32.56955197 55.12798969 30.85351562 55.12939453 C29.75567749 55.13254669 28.65783936 55.13569885 27.5267334 55.13894653 C26.33197388 55.1369223 25.13721436 55.13489807 23.90625 55.1328125 C22.68925415 55.13376923 21.4722583 55.13472595 20.21838379 55.13571167 C17.63924101 55.13639372 15.06009653 55.13453772 12.48095703 55.13037109 C8.51721364 55.12502322 4.55358358 55.13031529 0.58984375 55.13671875 C-1.90885442 55.13605797 -4.40755252 55.13477682 -6.90625 55.1328125 C-8.69838928 55.13584885 -8.69838928 55.13584885 -10.5267334 55.13894653 C-11.62457153 55.13579437 -12.72240967 55.13264221 -13.85351562 55.12939453 C-15.31126404 55.12820114 -15.31126404 55.12820114 -16.79846191 55.12698364 C-19 55 -19 55 -20 54 C-23.39085645 53.83853065 -26.39313688 54.06552281 -29.75 54.625 C-30.8225 54.74875 -31.895 54.8725 -33 55 C-33.66 54.34 -34.32 53.68 -35 53 C-25.816604 52.30784633 -16.71052831 51.88095235 -7.49829102 52.03710938 C-4.36921601 52.07588261 -1.99590396 51.99863465 1 51 C0.96970703 50.02353516 0.93941406 49.04707031 0.90820312 48.04101562 C0.79391847 44.33584729 0.68290115 40.63058641 0.57275391 36.92529297 C0.52510984 35.33705084 0.47663873 33.74883325 0.42724609 32.16064453 C0.09443229 21.43588953 -0.06619093 10.73028548 0 0 Z " fill="#DCDCDC" transform="translate(213,25)"/>
<path d="M0 0 C0.33 0 0.66 0 1 0 C1.02698189 1.62490954 1.04638757 3.24994633 1.0625 4.875 C1.07410156 5.77992187 1.08570313 6.68484375 1.09765625 7.6171875 C1 10 1 10 0 12 C0.29720134 15.29139393 0.7113519 18.55876332 1.13671875 21.8359375 C1 25 1 25 -0.79296875 27.37109375 C-3.54428338 29.40171004 -5.62703479 29.64864946 -9 30 C-10.32 30.33 -11.64 30.66 -13 31 C-13 28.03 -13 25.06 -13 22 C-9.37 22.33 -5.74 22.66 -2 23 C-1.67 19.7 -1.34 16.4 -1 13 C-4.96 13 -8.92 13 -13 13 C-13 10.69 -13 8.38 -13 6 C-8.71 6.33 -4.42 6.66 0 7 C0 4.69 0 2.38 0 0 Z " fill="#DCE1E2" transform="translate(337,34)"/>
<path d="M0 0 C7 2 7 2 8.9375 3.6875 C11.04410202 8.27245734 10.31154933 12.5900981 8.8125 17.25 C7.638988 20.11982082 7.01317368 20.98946106 4.5 23 C2 24 2 24 -1 24 C-0.67 16.08 -0.34 8.16 0 0 Z " fill="#EFF1F1" transform="translate(365,41)"/>
<path d="M0 0 C0.495 1.98 0.495 1.98 1 4 C0.18595703 4.70576172 0.18595703 4.70576172 -0.64453125 5.42578125 C-1.35996094 6.04839844 -2.07539063 6.67101563 -2.8125 7.3125 C-3.52019531 7.92738281 -4.22789062 8.54226562 -4.95703125 9.17578125 C-6.96950402 10.9173258 -6.96950402 10.9173258 -8.54296875 12.65234375 C-10 14 -10 14 -13.5 15.25 C-17.2749249 17.13298875 -17.2749249 17.13298875 -18.875 20.625 C-19.24625 21.73875 -19.6175 22.8525 -20 24 C-21 25 -21 25 -24.81640625 25.09765625 C-26.39846682 25.09098089 -27.98051159 25.07901875 -29.5625 25.0625 C-30.36880859 25.05798828 -31.17511719 25.05347656 -32.00585938 25.04882812 C-34.00393756 25.03700518 -36.00197783 25.01906914 -38 25 C-38.66 23.68 -39.32 22.36 -40 21 C-33.4 21 -26.8 21 -20 21 C-20 17.37 -20 13.74 -20 10 C-19.2265625 9.86464844 -18.453125 9.72929688 -17.65625 9.58984375 C-10.0105515 8.00960656 -5.33013932 5.72206133 0 0 Z " fill="#C9C9C9" transform="translate(295,53)"/>
<path d="M0 0 C3.42669253 3.42669253 3.48497581 8.31262795 4 13 C3.625 16.625 3.625 16.625 3 20 C2.24218676 28.74780064 4.16279314 36.63903304 9 44 C9.33 44.845625 9.66 45.69125 10 46.5625 C11.02879159 49.07017951 12.29466672 50.90709098 14 53 C10.17982999 51.49921893 8.24629201 49.40816719 6 46 C5.25 42.6875 5.25 42.6875 5 40 C4.34 40 3.68 40 3 40 C1.14868517 36.07142246 0.77995057 33.01224888 0.875 28.6875 C0.89304687 27.61886719 0.91109375 26.55023438 0.9296875 25.44921875 C0.95289063 24.64097656 0.97609375 23.83273438 1 23 C-1.45963073 23.34179745 -1.45963073 23.34179745 -4 24 C-5.36020151 25.96758273 -5.36020151 25.96758273 -6 28 C-8 26 -8 26 -8.25 23 C-8 20 -8 20 -6 18 C-4.35 18 -2.7 18 -1 18 C-0.505 9.09 -0.505 9.09 0 0 Z " fill="#C0D0D4" transform="translate(45,22)"/>
<path d="M0 0 C0.33 0 0.66 0 1 0 C1.05406122 1.93719378 1.09282025 3.87481921 1.125 5.8125 C1.14820312 6.89144531 1.17140625 7.97039062 1.1953125 9.08203125 C1 12 1 12 -1 15 C-1.66 15 -2.32 15 -3 15 C-3.226875 15.598125 -3.45375 16.19625 -3.6875 16.8125 C-5.41738789 19.69564648 -6.97416789 20.53455607 -10 22 C-13.4453125 22.3984375 -13.4453125 22.3984375 -17.125 22.375 C-18.95417969 22.38660156 -18.95417969 22.38660156 -20.8203125 22.3984375 C-24 22 -24 22 -25.91796875 20.73828125 C-27.86637299 17.60817335 -27.1771266 14.60157418 -27 11 C-26.34 11 -25.68 11 -25 11 C-24.67 12.65 -24.34 14.3 -24 16 C-14.82404098 16.9043502 -14.82404098 16.9043502 -6.3125 14.3125 C-1.82688729 9.82688729 -0.61898328 6.31362944 0 0 Z " fill="#D5D5D5" transform="translate(43,59)"/>
<path d="M0 0 C1.78131499 5.34394497 -1.19317586 10.2854987 -3.5 15.1875 C-7.25531059 19.41222442 -11.96743583 21.54762349 -17 24 C-17.66 24.33 -18.32 24.66 -19 25 C-20.7404417 25.08449628 -22.48409722 25.10723024 -24.2265625 25.09765625 C-25.2578125 25.09443359 -26.2890625 25.09121094 -27.3515625 25.08789062 C-28.97191406 25.07532227 -28.97191406 25.07532227 -30.625 25.0625 C-32.25695312 25.05573242 -32.25695312 25.05573242 -33.921875 25.04882812 C-36.61463789 25.03701776 -39.30729188 25.02054778 -42 25 C-42.66 23.68 -43.32 22.36 -44 21 C-43.44127197 21.01047363 -42.88254395 21.02094727 -42.30688477 21.03173828 C-39.7254707 21.07383379 -37.14412924 21.09949343 -34.5625 21.125 C-33.68400391 21.14175781 -32.80550781 21.15851563 -31.90039062 21.17578125 C-21.83241875 21.25008363 -14.56034099 19.89021986 -7 13 C-3.18522768 9.08212572 -1.72853455 5.09917691 0 0 Z " fill="#A9B0B1" transform="translate(389,54)"/>
<path d="M0 0 C3 3.75 3 3.75 3 6 C3.7425 5.54625 4.485 5.0925 5.25 4.625 C7.46930578 3.31359204 9.67967822 2.11719197 12 1 C12.66 2.65 13.32 4.3 14 6 C19.61 6 25.22 6 31 6 C31 6.66 31 7.32 31 8 C28.13366205 9.43316898 25.62764499 9.13200361 22.4375 9.125 C20.67212891 9.12886719 20.67212891 9.12886719 18.87109375 9.1328125 C16 9 16 9 15 8 C12.30345146 7.92680379 9.63308542 7.90757463 6.9375 7.9375 C5.79958008 7.94426758 5.79958008 7.94426758 4.63867188 7.95117188 C2.75908129 7.9629932 0.87953101 7.98092922 -1 8 C-1.33 8.66 -1.66 9.32 -2 10 C-4.97 10 -7.94 10 -11 10 C-11.33 8.68 -11.66 7.36 -12 6 C-8.37 6 -4.74 6 -1 6 C-1 4.35 -1 2.7 -1 1 C-0.67 0.67 -0.34 0.34 0 0 Z " fill="#B1BABC" transform="translate(430,68)"/>
<path d="M0 0 C0.33 0 0.66 0 1 0 C1.19268792 4.6260334 1.37134034 9.25231816 1.53710938 13.87939453 C1.59544307 15.45278381 1.65758355 17.02603682 1.72363281 18.59912109 C1.81800832 20.86270329 1.89860024 23.12642535 1.9765625 25.390625 C2.00875885 26.09181458 2.0409552 26.79300415 2.0741272 27.51544189 C2.18708788 31.21353668 2.11227619 33.89505668 0 37 C-1.65625 38.59765625 -1.65625 38.59765625 -3.5 40.0625 C-5.93664912 42.00872186 -7.22262121 43.33393182 -9 46 C-10.32 45.67 -11.64 45.34 -13 45 C-12.45730469 44.63390625 -11.91460937 44.2678125 -11.35546875 43.890625 C-5.70054134 39.61122048 -3.7418561 35.92939024 -2.390625 29 C-1.70001528 23.69611737 -1.6835374 18.89877561 -2.5625 13.625 C-3 11 -3 11 -2 8 C-1.65657551 6.66923011 -1.32380126 5.33568021 -1 4 C-0.5 2 -0.5 2 0 0 Z " fill="#CCCDCD" transform="translate(300,19)"/>
<path d="M0 0 C3 3.75 3 3.75 3 6 C3.7425 5.54625 4.485 5.0925 5.25 4.625 C7.46930578 3.31359204 9.67967822 2.11719197 12 1 C12.66 2.65 13.32 4.3 14 6 C19.61 6 25.22 6 31 6 C30.67 6.99 30.34 7.98 30 9 C24.63154321 9.09185572 19.34016185 9.10956831 14 8.5 C8.68510615 7.90282092 3.3432177 7.67029147 -2 8 C-2.33 8.33 -2.66 8.66 -3 9 C-5.33297433 9.04092937 -7.66705225 9.04241723 -10 9 C-10.33 8.01 -10.66 7.02 -11 6 C-7.7 6 -4.4 6 -1 6 C-1 4.35 -1 2.7 -1 1 C-0.67 0.67 -0.34 0.34 0 0 Z " fill="#ACB7B9" transform="translate(179,68)"/>
<path d="M0 0 C10.23 0 20.46 0 31 0 C31 1.32 31 2.64 31 4 C26.90658501 4.02469575 22.81319879 4.04285793 18.71972656 4.05493164 C17.32681523 4.0599643 15.9339092 4.06679098 14.54101562 4.07543945 C12.54038754 4.08755152 10.53972112 4.09270412 8.5390625 4.09765625 C7.33459473 4.10289307 6.13012695 4.10812988 4.88916016 4.11352539 C2 4 2 4 0 3 C0 2.01 0 1.02 0 0 Z " fill="#B3B3B3" transform="translate(217,74)"/>
<path d="M0 0 C0.66 0.33 1.32 0.66 2 1 C2.74609375 3.44921875 2.74609375 3.44921875 3.4375 6.6875 C3.69273437 7.86183594 3.94796875 9.03617188 4.2109375 10.24609375 C4.47132813 11.48488281 4.73171875 12.72367188 5 14 C5.26039063 15.20785156 5.52078125 16.41570313 5.7890625 17.66015625 C6.29944738 20.02906385 6.80691561 22.39860196 7.3112793 24.76879883 C8.90492719 32.24555523 10.64290518 39.66877554 12.51171875 47.08203125 C12.98821258 49.9295584 13.12176494 51.37495615 12 54 C10.42685376 55.94970665 9.62602874 56.91807843 7.09887695 57.2487793 C6.40238037 57.19117432 5.70588379 57.13356934 4.98828125 57.07421875 C4.23095703 57.01943359 3.47363281 56.96464844 2.69335938 56.90820312 C1.90767578 56.83537109 1.12199219 56.76253906 0.3125 56.6875 C-0.48478516 56.62626953 -1.28207031 56.56503906 -2.10351562 56.50195312 C-4.07016953 56.34886031 -6.03528989 56.17629291 -8 56 C-8 55.67 -8 55.34 -8 55 C-6.86820312 54.93941406 -5.73640625 54.87882812 -4.5703125 54.81640625 C-3.08852855 54.73200083 -1.6067584 54.64735283 -0.125 54.5625 C0.62136719 54.52318359 1.36773437 54.48386719 2.13671875 54.44335938 C6.19986864 54.28426376 6.19986864 54.28426376 10 53 C9.40113711 46.69084742 8.38201419 40.67668405 6.93359375 34.51171875 C6.73524429 33.64609818 6.53689484 32.7804776 6.33253479 31.8886261 C5.70561217 29.15379602 5.07228207 26.42051569 4.4375 23.6875 C3.79941266 20.93657573 3.16288364 18.18534481 2.53175354 15.43281555 C2.14081405 13.72791408 1.7459101 12.02391552 1.34654236 10.32096863 C1.16958328 9.5494899 0.99262421 8.77801117 0.81030273 7.9831543 C0.65343491 7.30858688 0.49656708 6.63401947 0.33494568 5.93901062 C0 4 0 4 0 0 Z " fill="#E8E9E9" transform="translate(453,24)"/>
<path d="M0 0 C10.23 0 20.46 0 31 0 C30.34 1.32 29.68 2.64 29 4 C20.09 4 11.18 4 2 4 C1.34 2.68 0.68 1.36 0 0 Z " fill="#B1B1B1" transform="translate(304,74)"/>
<path d="M0 0 C2.25318124 3.37977186 2.25660889 4.5634336 2.265625 8.5234375 C2.26949219 9.62187988 2.27335938 10.72032227 2.27734375 11.85205078 C2.26832031 13.01462402 2.25929687 14.17719727 2.25 15.375 C2.24613281 16.5491748 2.24226562 17.72334961 2.23828125 18.93310547 C2.15981561 26.78947718 1.74233243 34.31506947 0 42 C0.66 42.33 1.32 42.66 2 43 C0.68 43 -0.64 43 -2 43 C-2.13047538 34.5046032 -1.93563142 26.04893882 -1.5625 17.5625 C-1.52326416 16.62776855 -1.48402832 15.69303711 -1.44360352 14.72998047 C-1.21159015 9.757502 -0.80422165 4.91318606 0 0 Z " fill="#E1E2E2" transform="translate(239,22)"/>
<path d="M0 0 C1.98 0 3.96 0 6 0 C8 2 8 2 8.3125 5.9375 C8.23778547 8.51515144 8.17462874 9.71507942 6.8125 11.9375 C5 13 5 13 0 14 C0 9.38 0 4.76 0 0 Z " fill="#E3E5E6" transform="translate(275,40)"/>
<path d="M0 0 C0 0.99 0 1.98 0 3 C-0.99 3.66 -1.98 4.32 -3 5 C-1.125 1.125 -1.125 1.125 0 0 Z M-4 7 C-5.10408203 7.4021875 -5.10408203 7.4021875 -6.23046875 7.8125 C-12.48010519 10.32226153 -15.79681223 12.24669184 -18.984375 18.1953125 C-20.58385882 21.03747221 -21.92013894 21.92874398 -25 23 C-28.71000484 23.38191226 -32.30846312 23.58287424 -36 23 C-37.8359375 21.4765625 -37.8359375 21.4765625 -39 20 C-37.79601562 19.95101562 -36.59203125 19.90203125 -35.3515625 19.8515625 C-33.77601802 19.77653657 -32.20049834 19.70098867 -30.625 19.625 C-29.8309375 19.5940625 -29.036875 19.563125 -28.21875 19.53125 C-23.63332625 19.48183579 -23.63332625 19.48183579 -20 17 C-19.731875 16.030625 -19.46375 15.06125 -19.1875 14.0625 C-17.73820805 10.32485234 -16.57359258 9.66213609 -13 8 C-12.154375 7.5875 -11.30875 7.175 -10.4375 6.75 C-7.73055257 5.9170931 -6.6457786 6.21689428 -4 7 Z " fill="#ECECEC" transform="translate(295,59)"/>
<path d="M0 0 C7 2 7 2 8.9375 3.6875 C10.39469867 6.85905004 10.19864343 9.55684723 10 13 C9.01 13.495 9.01 13.495 8 14 C7.34 12.02 6.68 10.04 6 8 C4.68 8 3.36 8 2 8 C2 13.28 2 18.56 2 24 C1.01 24 0.02 24 -1 24 C-0.67 16.08 -0.34 8.16 0 0 Z " fill="#D2D6D6" transform="translate(365,41)"/>
<path d="M0 0 C0.33 0 0.66 0 1 0 C1.10807131 1.93627769 1.1856225 3.87427756 1.25 5.8125 C1.29640625 6.89144531 1.3428125 7.97039062 1.390625 9.08203125 C1 12 1 12 -0.8125 13.80859375 C-8.01423981 17.73096989 -14.3301286 17.23704582 -22 15 C-22 14.34 -22 13.68 -22 13 C-22.639375 12.87625 -23.27875 12.7525 -23.9375 12.625 C-24.618125 12.41875 -25.29875 12.2125 -26 12 C-26.33 11.34 -26.66 10.68 -27 10 C-26.21367188 10.31710938 -25.42734375 10.63421875 -24.6171875 10.9609375 C-20.08443243 12.26300321 -15.81721222 12.45540197 -11.125 12.625 C-10.24585937 12.66367188 -9.36671875 12.70234375 -8.4609375 12.7421875 C-6.30761207 12.83581034 -4.15383586 12.91896459 -2 13 C-1.90912109 11.71802734 -1.90912109 11.71802734 -1.81640625 10.41015625 C-1.73261719 9.30542969 -1.64882812 8.20070313 -1.5625 7.0625 C-1.48128906 5.96035156 -1.40007812 4.85820313 -1.31640625 3.72265625 C-1 1 -1 1 0 0 Z " fill="#E5E5E5" transform="translate(138,67)"/>
<path d="M0 0 C0.56847656 0.39832031 1.13695313 0.79664062 1.72265625 1.20703125 C2.49480469 1.73683594 3.26695313 2.26664062 4.0625 2.8125 C4.81660156 3.33457031 5.57070312 3.85664062 6.34765625 4.39453125 C12.71815196 8.2506045 17.65099329 9.43100794 24.9375 9.1875 C25.71673828 9.17396484 26.49597656 9.16042969 27.29882812 9.14648438 C29.19952404 9.11150224 31.09985834 9.05770959 33 9 C32.34 10.32 31.68 11.64 31 13 C18.23155887 13.65386043 10.97057883 12.1004388 1.43359375 3.5859375 C0 2 0 2 0 0 Z " fill="#A6A9AA" transform="translate(103,66)"/>
<path d="M0 0 C0.33 0.66 0.66 1.32 1 2 C1.66 2 2.32 2 3 2 C3.1959375 2.56847656 3.391875 3.13695312 3.59375 3.72265625 C6.0149994 9.97407174 8.87857881 14.8862135 15 18 C20.23846457 19.32418215 25.62255348 19.68022466 31 20 C26.22424809 23.18383461 21.43035222 22.4113891 15.8828125 21.74609375 C9.61195404 20.14689892 6.50395498 15.17853325 2.78515625 10.203125 C0.83501887 6.70397259 0.31391745 3.96632213 0 0 Z " fill="#DEDEDE" transform="translate(47,60)"/>
<path d="M0 0 C0.515625 0.680625 1.03125 1.36125 1.5625 2.0625 C5.18007696 6.42214403 9.1674904 10.40242753 13.4375 14.125 C15 16 15 16 15.25 18.75 C15.1675 19.4925 15.085 20.235 15 21 C13.02 21.99 13.02 21.99 11 23 C11.2165625 21.9790625 11.2165625 21.9790625 11.4375 20.9375 C10.74497417 16.2876837 7.34079489 14.09756786 4 11 C0.06516027 6.86337362 0.06516027 6.86337362 -0.25 2.6875 C-0.1675 1.800625 -0.085 0.91375 0 0 Z " fill="#BACCD0" transform="translate(12,42)"/>
<path d="M0 0 C0 0.66 0 1.32 0 2 C-0.93972656 2.18175781 -0.93972656 2.18175781 -1.8984375 2.3671875 C-2.71570313 2.53476562 -3.53296875 2.70234375 -4.375 2.875 C-5.59316406 3.11863281 -5.59316406 3.11863281 -6.8359375 3.3671875 C-9.18673923 3.86658932 -9.18673923 3.86658932 -11 6 C-11.99 6 -12.98 6 -14 6 C-14.28875 6.5775 -14.5775 7.155 -14.875 7.75 C-15.91666667 9.83333333 -16.95833333 11.91666667 -18 14 C-18.44403753 9.55962474 -18.32022463 7.49917368 -15.875 3.6875 C-10.70074246 -1.14930596 -6.80904046 -1.36180809 0 0 Z " fill="#C1C2C3" transform="translate(138,43)"/>
<path d="M0 0 C0.33 0.66 0.66 1.32 1 2 C0.07161713 3.31896465 -0.86805732 4.62998689 -1.8125 5.9375 C-2.33457031 6.66839844 -2.85664062 7.39929688 -3.39453125 8.15234375 C-5 10 -5 10 -8 11 C-10.22818441 11.06937062 -12.45834524 11.08457084 -14.6875 11.0625 C-16.45673828 11.04896484 -16.45673828 11.04896484 -18.26171875 11.03515625 C-19.16535156 11.02355469 -20.06898437 11.01195313 -21 11 C-21.66 9.68 -22.32 8.36 -23 7 C-21.48019531 7.06960937 -21.48019531 7.06960937 -19.9296875 7.140625 C-18.57815468 7.17816758 -17.22658972 7.21456506 -15.875 7.25 C-15.20984375 7.28351563 -14.5446875 7.31703125 -13.859375 7.3515625 C-8.71824448 7.45236898 -5.93320568 6.24460291 -2 3 C-1.34 2.01 -0.68 1.02 0 0 Z " fill="#AFB3B4" transform="translate(41,68)"/>
<path d="M0 0 C6.27 0 12.54 0 19 0 C18 3 18 3 16 4 C13.62597499 4.07116382 11.24999323 4.08409085 8.875 4.0625 C7.59367187 4.05347656 6.31234375 4.04445313 4.9921875 4.03515625 C3.51105469 4.01775391 3.51105469 4.01775391 2 4 C1.34 2.68 0.68 1.36 0 0 Z " fill="#B3B3B3" transform="translate(395,74)"/>
<path d="M0 0 C1.26606917 3.79820751 0.46754952 6.57886472 -0.36328125 10.37109375 C-0.51532516 11.0898317 -0.66736908 11.80856964 -0.82402039 12.54908752 C-1.14738776 14.06876884 -1.47462002 15.58763214 -1.80541992 17.10571289 C-2.30940361 19.42326137 -2.7991705 21.74347987 -3.28710938 24.06445312 C-3.60332123 25.54184787 -3.92035177 27.01906768 -4.23828125 28.49609375 C-4.38421219 29.18787216 -4.53014313 29.87965057 -4.68049622 30.59239197 C-5.42617083 33.98021331 -6.25030638 36.98975893 -8 40 C-7.28756166 33.31404023 -6.44043824 26.65755782 -5.5 20 C-5.30470703 18.57107422 -5.30470703 18.57107422 -5.10546875 17.11328125 C-4.97785156 16.20964844 -4.85023438 15.30601563 -4.71875 14.375 C-4.54762695 13.14910156 -4.54762695 13.14910156 -4.37304688 11.8984375 C-4 10 -4 10 -3 9 C-2.855625 7.865625 -2.71125 6.73125 -2.5625 5.5625 C-2 2 -2 2 0 0 Z " fill="#E8E9E9" transform="translate(428,22)"/>
<path d="M0 0 C0.33 0 0.66 0 1 0 C1.02688151 1.64574566 1.04634123 3.29161413 1.0625 4.9375 C1.07410156 5.85402344 1.08570313 6.77054688 1.09765625 7.71484375 C1 10 1 10 0 11 C-1.80811184 11.20896317 -3.62216032 11.36780361 -5.4375 11.5 C-9.36434915 11.71419183 -9.36434915 11.71419183 -13 13 C-13 10.69 -13 8.38 -13 6 C-8.71 6.33 -4.42 6.66 0 7 C0 4.69 0 2.38 0 0 Z " fill="#C9C9C9" transform="translate(337,34)"/>
<path d="M0 0 C2.96052484 3.36423277 3.92289822 6.69159287 5 11 C2.03 11.66 -0.94 12.32 -4 13 C-3.55966813 7.80408388 -3.11696661 4.33664919 0 0 Z " fill="#C4CFD1" transform="translate(436,51)"/>
<path d="M0 0 C3.14958831 3.42346555 3.56179109 6.44262737 4 11 C1.69 11.66 -0.62 12.32 -3 13 C-4.10096216 9.73381227 -3.9223497 7.98446051 -2.625 4.8125 C-2.34914062 4.11769531 -2.07328125 3.42289063 -1.7890625 2.70703125 C-1 1 -1 1 0 0 Z " fill="#C4C7C8" transform="translate(185,51)"/>
<path d="M0 0 C0.33 0 0.66 0 1 0 C1.05001078 4.90721202 1.08600384 9.8142707 1.10986328 14.72167969 C1.11982596 16.38576853 1.13340102 18.04984031 1.15087891 19.71386719 C1.24944566 29.35021689 1.08615867 38.53114452 -1 48 C-1.33 48 -1.66 48 -2 48 C-2.12728318 39.04774965 -1.94360334 30.13221957 -1.5625 21.1875 C-1.52326416 20.23415771 -1.48402832 19.28081543 -1.44360352 18.29858398 C-1.16709115 12.17232249 -0.67593235 6.09500223 0 0 Z " fill="#D6D7D7" transform="translate(417,26)"/>
<path d="M0 0 C0.33 0 0.66 0 1 0 C1 13.53 1 27.06 1 41 C0.67 41 0.34 41 0 41 C-0.34199953 37.25073924 -0.67194171 33.50050426 -1 29.75 C-1.09539062 28.70585938 -1.19078125 27.66171875 -1.2890625 26.5859375 C-3.01784844 6.58141452 -3.01784844 6.58141452 0 0 Z " fill="#E7EAEB" transform="translate(213,19)"/>
<path d="M0 0 C0.33 0 0.66 0 1 0 C1.01458252 0.55985596 1.02916504 1.11971191 1.04418945 1.6965332 C1.11871352 4.23588137 1.21535581 6.77392078 1.3125 9.3125 C1.33505859 10.19357422 1.35761719 11.07464844 1.38085938 11.98242188 C1.41630859 12.82998047 1.45175781 13.67753906 1.48828125 14.55078125 C1.51446533 15.33106689 1.54064941 16.11135254 1.56762695 16.9152832 C2.13020044 19.62777051 2.68045418 20.4663765 5 22 C8.19477975 22.508149 8.19477975 22.508149 11.85546875 22.51171875 C12.51710526 22.52966995 13.17874176 22.54762115 13.86042786 22.56611633 C15.96938747 22.62020898 18.07812099 22.65410931 20.1875 22.6875 C21.61917208 22.72067427 23.05081433 22.75516405 24.48242188 22.79101562 C27.9880639 22.87593257 31.49378473 22.94274921 35 23 C35 23.33 35 23.66 35 24 C24.11 24 13.22 24 2 24 C0.12774634 20.25549268 -0.24550933 19.14972809 -0.1953125 15.234375 C-0.18886719 14.34492187 -0.18242187 13.45546875 -0.17578125 12.5390625 C-0.15902344 11.61867188 -0.14226562 10.69828125 -0.125 9.75 C-0.11597656 8.81414062 -0.10695313 7.87828125 -0.09765625 6.9140625 C-0.07413636 4.60911343 -0.04126853 2.3046884 0 0 Z " fill="#E7E7E7" transform="translate(300,56)"/>
<path d="M0 0 C0.66 0.33 1.32 0.66 2 1 C-5.50793004 7.77544906 -14.20428052 10.96817232 -24.3125 11.25 C-27.71953529 11.01901456 -29.13402757 10.59431579 -32 9 C-30.56720703 8.96132812 -30.56720703 8.96132812 -29.10546875 8.921875 C-18.22000122 8.44434701 -8.90302653 6.73742548 0 0 Z " fill="#F1F1F1" transform="translate(382,73)"/>
<path d="M0 0 C0.33 0 0.66 0 1 0 C1.01417969 0.68707031 1.02835937 1.37414062 1.04296875 2.08203125 C1.09066406 2.98308594 1.13835937 3.88414063 1.1875 4.8125 C1.22230469 5.70582031 1.25710938 6.59914063 1.29296875 7.51953125 C1.80377982 10.13090234 1.80377982 10.13090234 3.9375 11.78125 C8.22378031 13.48701461 12.236026 13.56805437 16.8125 13.6875 C17.69615234 13.72166016 18.57980469 13.75582031 19.49023438 13.79101562 C21.65972167 13.87310433 23.8298389 13.93823879 26 14 C24 16 24 16 22.02880859 16.22705078 C21.24328613 16.21657715 20.45776367 16.20610352 19.6484375 16.1953125 C18.79765625 16.18886719 17.946875 16.18242188 17.0703125 16.17578125 C15.73613281 16.15064453 15.73613281 16.15064453 14.375 16.125 C13.02921875 16.11146484 13.02921875 16.11146484 11.65625 16.09765625 C9.43723414 16.0740497 7.21874923 16.0411231 5 16 C5 15.34 5 14.68 5 14 C4.360625 13.690625 3.72125 13.38125 3.0625 13.0625 C1 12 1 12 0 11 C-0.07226502 9.14712498 -0.0838122 7.29166122 -0.0625 5.4375 C-0.05347656 4.42558594 -0.04445313 3.41367188 -0.03515625 2.37109375 C-0.02355469 1.58863281 -0.01195312 0.80617188 0 0 Z " fill="#E0E0E0" transform="translate(341,66)"/>
<path d="M0 0 C6.6 0 13.2 0 20 0 C19.67 0.99 19.34 1.98 19 3 C13.06 3 7.12 3 1 3 C0.67 2.01 0.34 1.02 0 0 Z " fill="#B0B0B0" transform="translate(144,74)"/>
<path d="M0 0 C0.33 0 0.66 0 1 0 C1.81352241 5.67495216 2.13614934 11.14692814 2.09765625 16.875 C2.09553383 18.08990112 2.09553383 18.08990112 2.09336853 19.3293457 C2.08782383 21.88626994 2.07528207 24.44310276 2.0625 27 C2.05747784 28.74609247 2.05291619 30.49218634 2.04882812 32.23828125 C2.0378726 36.49222209 2.02064694 40.74609561 2 45 C1.01 45 0.02 45 -1 45 C-1 44.01 -1 43.02 -1 42 C-0.34 42 0.32 42 1 42 C0.95456055 40.78437378 0.95456055 40.78437378 0.90820312 39.54418945 C0.79448106 36.47085078 0.68293552 33.3974421 0.57275391 30.32397461 C0.50194644 28.3663144 0.42874146 26.40874137 0.35546875 24.45117188 C0.0649717 16.29650461 -0.06221501 8.1596708 0 0 Z " fill="#D8D8D8" transform="translate(251,24)"/>
<path d="M0 0 C1.25537887 3.76613661 0.61349971 5.76548095 -0.21484375 9.63671875 C-0.41673058 10.59587944 -0.41673058 10.59587944 -0.62269592 11.57441711 C-1.05368656 13.61373752 -1.49543735 15.65055405 -1.9375 17.6875 C-2.23183207 19.07081218 -2.52546036 20.45427431 -2.81835938 21.83789062 C-3.53741859 25.22703755 -4.26614489 28.61402224 -5 32 C-5.33 32 -5.66 32 -6 32 C-6.22731216 25.06697907 -5.42002108 18.7831364 -4 12 C-3.34 12 -2.68 12 -2 12 C-2.02320313 11.30132812 -2.04640625 10.60265625 -2.0703125 9.8828125 C-2.08835938 8.97273438 -2.10640625 8.06265625 -2.125 7.125 C-2.14820313 6.22007813 -2.17140625 5.31515625 -2.1953125 4.3828125 C-2 2 -2 2 0 0 Z " fill="#E7E9E9" transform="translate(177,22)"/>
<path d="M0 0 C3.375 1 3.375 1 5.375 4 C5 6.1875 5 6.1875 4.375 8 C4.045 6.68 3.715 5.36 3.375 4 C-1.64035052 4.32960216 -1.64035052 4.32960216 -5.625 7 C-6.02547444 9.32275177 -6.3647104 11.65739357 -6.625 14 C-6.955 14 -7.285 14 -7.625 14 C-7.98219471 9.44576746 -8.138696 6.027392 -6.0625 1.875 C-3.625 0 -3.625 0 0 0 Z " fill="#96BCC5" transform="translate(72.625,41)"/>
<path d="M0 0 C5.94 0 11.88 0 18 0 C18 0.99 18 1.98 18 3 C12.39 3 6.78 3 1 3 C0.67 2.01 0.34 1.02 0 0 Z " fill="#A6A6A6" transform="translate(255,74)"/>
<path d="M0 0 C0.33 0.99 0.66 1.98 1 3 C-2.6345002 8.59153877 -6.64409093 10.82253912 -13 12.3125 C-16.92666582 13.03336552 -19.45662305 13.12602617 -23 11 C-23 10.67 -23 10.34 -23 10 C-22.11957031 9.96261719 -21.23914063 9.92523438 -20.33203125 9.88671875 C-18.58986328 9.78810547 -18.58986328 9.78810547 -16.8125 9.6875 C-15.08966797 9.60048828 -15.08966797 9.60048828 -13.33203125 9.51171875 C-9.79348183 8.96828384 -7.84902986 8.13044684 -5 6 C-4.34 5.01 -3.68 4.02 -3 3 C-2.34 3 -1.68 3 -1 3 C-0.67 2.01 -0.34 1.02 0 0 Z " fill="#EBEBEB" transform="translate(43,71)"/>
<path d="M0 0 C0.33 0 0.66 0 1 0 C0.74438677 2.3431213 0.40729228 4.67843403 0 7 C-2.40545638 8.20272819 -3.94996953 8.10071472 -6.625 8.0625 C-7.85089844 8.04896484 -7.85089844 8.04896484 -9.1015625 8.03515625 C-10.04128906 8.01775391 -10.04128906 8.01775391 -11 8 C-11 6.35 -11 4.7 -11 3 C-7.37 3.33 -3.74 3.66 0 4 C0 2.68 0 1.36 0 0 Z " fill="#C7C7C7" transform="translate(335,53)"/>
<path d="M0 0 C0.66 0.33 1.32 0.66 2 1 C1.98839844 1.67804687 1.97679687 2.35609375 1.96484375 3.0546875 C1.90291649 9.44204207 2.22981132 15.65969676 3 22 C-0.86370139 18.30566634 -1.90676109 15.46851284 -2.25 10.0625 C-2.1672443 6.42814539 -1.35571445 3.38928614 0 0 Z " fill="#E1E3E3" transform="translate(10,28)"/>
<path d="M0 0 C4.95 0 9.9 0 15 0 C15 0.33 15 0.66 15 1 C11.66909251 1.67918721 8.33511693 2.34181136 5 3 C3.99582031 3.20238281 2.99164063 3.40476562 1.95703125 3.61328125 C0.98121094 3.80277344 0.00539063 3.99226563 -1 4.1875 C-1.9075 4.36667969 -2.815 4.54585938 -3.75 4.73046875 C-6 5 -6 5 -8 4 C-8 3.34 -8 2.68 -8 2 C-5.36 2 -2.72 2 0 2 C0 1.34 0 0.68 0 0 Z " fill="#E4E4E4" transform="translate(428,77)"/>
<path d="M0 0 C1.50063117 4.5018935 -0.22786379 7.73374616 -2 12 C-4.38850843 16.29931518 -6.4572746 18.96772811 -11 21 C-11.66 20.67 -12.32 20.34 -13 20 C-12.401875 19.608125 -11.80375 19.21625 -11.1875 18.8125 C-8.69441464 16.7468007 -7.57372184 14.81958496 -6 12 C-4.9790625 10.5459375 -4.9790625 10.5459375 -3.9375 9.0625 C-2.04493155 6.07102083 -0.96831754 3.38911138 0 0 Z " fill="#B5C0C3" transform="translate(389,54)"/>
<path d="M0 0 C5.28 0 10.56 0 16 0 C16 0.66 16 1.32 16 2 C13.11584117 3.44207941 10.58278472 3.09394887 7.375 3.0625 C6.18648438 3.05347656 4.99796875 3.04445313 3.7734375 3.03515625 C2.85820312 3.02355469 1.94296875 3.01195313 1 3 C0.67 2.01 0.34 1.02 0 0 Z " fill="#ABABAB" transform="translate(445,74)"/>
<path d="M0 0 C0 0.33 0 0.66 0 1 C-0.62648437 1.02578125 -1.25296875 1.0515625 -1.8984375 1.078125 C-2.71570313 1.13484375 -3.53296875 1.1915625 -4.375 1.25 C-5.18710938 1.29640625 -5.99921875 1.3428125 -6.8359375 1.390625 C-9.14863893 1.79076548 -9.14863893 1.79076548 -10.25390625 3.8515625 C-11.18498218 6.5326712 -11.57367359 9.19842644 -12 12 C-12.33 12.66 -12.66 13.32 -13 14 C-15.32579101 10.51131349 -15.41865457 9.10281481 -15 5 C-13.57245771 2.22004923 -12.72435532 1.24145177 -9.75 0.25 C-6.4867772 -0.04665662 -3.27479788 -0.06421172 0 0 Z " fill="#E7E8E8" transform="translate(136,48)"/>
<path d="M0 0 C2.47223763 2.47223763 2.58009771 3.96806683 3.1875 7.375 C3.36667969 8.33148438 3.54585937 9.28796875 3.73046875 10.2734375 C3.98745577 12.87310329 3.81960325 14.54700305 3 17 C2.01 16.67 1.02 16.34 0 16 C0 10.72 0 5.44 0 0 Z " fill="#DEE0E0" transform="translate(45,22)"/>
<path d="M0 0 C0 3 0 3 -1.25 4.5 C-6.68150476 9.15557551 -11.63046267 12 -19 12 C-19 11.01 -19 10.02 -19 9 C-17.82244141 8.77957031 -17.82244141 8.77957031 -16.62109375 8.5546875 C-9.41142757 7.01544589 -5.16715488 5.28459022 0 0 Z " fill="#9EACAF" transform="translate(294,54)"/>
<path d="M0 0 C5.28 0 10.56 0 16 0 C15.67 0.99 15.34 1.98 15 3 C13.25008666 3.02715383 11.50005055 3.04646551 9.75 3.0625 C8.28820312 3.07990234 8.28820312 3.07990234 6.796875 3.09765625 C4.34241322 3.01195577 2.33831086 2.70706066 0 2 C0 1.34 0 0.68 0 0 Z " fill="#ABABAB" transform="translate(194,74)"/>
<path d="M0 0 C0.33 0.66 0.66 1.32 1 2 C0.04578192 3.14926266 -0.91352045 4.29430541 -1.875 5.4375 C-2.40867187 6.07558594 -2.94234375 6.71367188 -3.4921875 7.37109375 C-5 9 -5 9 -7 10 C-8.99960012 10.039992 -11.00047242 10.04346799 -13 10 C-8.75259665 6.54898478 -4.38894929 3.26720791 0 0 Z " fill="#E1E1E1" transform="translate(91,70)"/>
<path d="M0 0 C6.41625207 1.45273632 6.41625207 1.45273632 9 3.875 C10 6 10 6 9.6875 8.25 C9.460625 8.8275 9.23375 9.405 9 10 C8.443125 9.360625 7.88625 8.72125 7.3125 8.0625 C4.77933439 5.80319013 3.31658576 5.36850953 0 5 C0 3.35 0 1.7 0 0 Z " fill="#9DA8AB" transform="translate(365,41)"/>
<path d="M0 0 C2.09350689 3.4019487 2.17942163 6.05272412 2 10 C1.67 10 1.34 10 1 10 C0.5359375 8.5459375 0.5359375 8.5459375 0.0625 7.0625 C-0.69523342 4.15934208 -0.69523342 4.15934208 -2 3 C-4.5 2.83333333 -4.5 2.83333333 -7 3 C-8.58272601 4.58272601 -8.34735747 6.38034003 -8.5625 8.5625 C-8.64628906 9.38878906 -8.73007813 10.21507812 -8.81640625 11.06640625 C-8.87699219 11.70449219 -8.93757813 12.34257813 -9 13 C-9.33 13 -9.66 13 -10 13 C-10.08121924 11.39667209 -10.13929134 9.79215974 -10.1875 8.1875 C-10.22230469 7.29417969 -10.25710937 6.40085937 -10.29296875 5.48046875 C-10 3 -10 3 -8.71875 1.1875 C-5.96006727 -0.71849898 -3.2428478 -0.18355742 0 0 Z " fill="#CED0D1" transform="translate(76,45)"/>
<path d="M0 0 C2.875 -0.125 2.875 -0.125 6 0 C8 2 8 2 8 5 C5.69 4.67 3.38 4.34 1 4 C1 5.98 1 7.96 1 10 C0.67 10 0.34 10 0 10 C0 6.7 0 3.4 0 0 Z " fill="#90B2B9" transform="translate(275,40)"/>
<path d="M0 0 C2.5625 0.3125 2.5625 0.3125 4.375 1.3125 C6.29868446 4.55238962 5.74532384 7.5950819 5.5625 11.3125 C5.2325 11.3125 4.9025 11.3125 4.5625 11.3125 C4.44132812 10.74660156 4.32015625 10.18070313 4.1953125 9.59765625 C4.02773437 8.86417969 3.86015625 8.13070312 3.6875 7.375 C3.44386719 6.27865234 3.44386719 6.27865234 3.1953125 5.16015625 C2.73288477 3.10549706 2.73288477 3.10549706 0.5625 2.3125 C-0.7575 2.6425 -2.0775 2.9725 -3.4375 3.3125 C-3.4375 6.6125 -3.4375 9.9125 -3.4375 13.3125 C-3.7675 13.3125 -4.0975 13.3125 -4.4375 13.3125 C-4.49141993 11.52116022 -4.53025571 9.72936101 -4.5625 7.9375 C-4.58570312 6.93976562 -4.60890625 5.94203125 -4.6328125 4.9140625 C-4.3682982 1.39073206 -3.51394158 0.45050533 0 0 Z " fill="#E4E5E6" transform="translate(71.4375,46.6875)"/>
<path d="M0 0 C0.33 0 0.66 0 1 0 C1.042721 1.66611905 1.04063832 3.33382885 1 5 C-1.1662868 7.1662868 -5.93884217 6.23161742 -8.9375 6.25 C-9.77474609 6.270625 -10.61199219 6.29125 -11.47460938 6.3125 C-12.27576172 6.31765625 -13.07691406 6.3228125 -13.90234375 6.328125 C-15.00823853 6.34214355 -15.00823853 6.34214355 -16.13647461 6.35644531 C-16.75143799 6.23881836 -17.36640137 6.12119141 -18 6 C-18.66 5.01 -19.32 4.02 -20 3 C-19.01 3.33 -18.02 3.66 -17 4 C-14.42734182 4.07029121 -11.88358569 4.09370832 -9.3125 4.0625 C-8.61060547 4.05798828 -7.90871094 4.05347656 -7.18554688 4.04882812 C-5.45699462 4.03706927 -3.72848635 4.01913454 -2 4 C-2 3.34 -2 2.68 -2 2 C-1.34 2 -0.68 2 0 2 C0 1.34 0 0.68 0 0 Z " fill="#C3C9CA" transform="translate(463,72)"/>
<path d="M0 0 C0 0.66 0 1.32 0 2 C-1.10408203 2.23783203 -1.10408203 2.23783203 -2.23046875 2.48046875 C-8.28877178 3.92901941 -12.11328447 5.04108709 -16 10 C-14.64908476 5.57882285 -12.8349855 3.556657 -9 1 C-5.99291505 -0.12765686 -3.19294521 -0.08869292 0 0 Z " fill="#A4ABAD" transform="translate(136,42)"/>
<path d="M0 0 C0.66 0 1.32 0 2 0 C1.67 1.32 1.34 2.64 1 4 C-1.79173055 4.02690104 -4.58320348 4.04679053 -7.375 4.0625 C-8.56609375 4.07506836 -8.56609375 4.07506836 -9.78125 4.08789062 C-15.7734375 4.11328125 -15.7734375 4.11328125 -18 3 C-18 2.34 -18 1.68 -18 1 C-16.8553125 1.2475 -16.8553125 1.2475 -15.6875 1.5 C-10.77854151 2.16562149 -5.94564886 2.07920078 -1 2 C-0.67 1.34 -0.34 0.68 0 0 Z " fill="#C5C5C5" transform="translate(210,74)"/>
<path d="M0 0 C0.33 0 0.66 0 1 0 C1.01458252 0.60996826 1.02916504 1.21993652 1.04418945 1.84838867 C1.11894775 4.62871064 1.21551482 7.40786824 1.3125 10.1875 C1.33505859 11.14720703 1.35761719 12.10691406 1.38085938 13.09570312 C1.64069475 20.01953686 1.64069475 20.01953686 5 26 C1.125 24.125 1.125 24.125 0 23 C-0.08713831 21.29227642 -0.10700007 19.58101351 -0.09765625 17.87109375 C-0.09443359 16.83662109 -0.09121094 15.80214844 -0.08789062 14.73632812 C-0.07951172 13.64771484 -0.07113281 12.55910156 -0.0625 11.4375 C-0.05798828 10.34501953 -0.05347656 9.25253906 -0.04882812 8.12695312 C-0.03699826 5.41791505 -0.02051543 2.70898401 0 0 Z " fill="#D2D2D2" transform="translate(342,53)"/>
<path d="M0 0 C9.31543624 7.81208054 9.31543624 7.81208054 12 11 C11.8125 13.3125 11.8125 13.3125 11 15 C10.443125 14.113125 9.88625 13.22625 9.3125 12.3125 C7.78847793 10.00748441 6.3688456 8.3688456 4.375 6.375 C2.21762958 4.21762958 1.24486027 2.70671453 0 0 Z " fill="#AEB4B5" transform="translate(14,46)"/>
<path d="M0 0 C1.10546875 1.6796875 1.10546875 1.6796875 2 4 C1.42578125 6.5078125 1.42578125 6.5078125 0.3125 9.125 C-0.04199219 9.99382812 -0.39648438 10.86265625 -0.76171875 11.7578125 C-2 14 -2 14 -5 16 C-4.38938879 11.8478438 -2.86617941 8.73235883 -1 5 C-0.30092586 2.26427415 -0.30092586 2.26427415 0 0 Z " fill="#DFDFDF" transform="translate(389,57)"/>
<path d="M0 0 C0.66 0.33 1.32 0.66 2 1 C-2.65534797 5.2119815 -6.36754169 7.84206703 -12.875 8.125 C-13.57625 8.08375 -14.2775 8.0425 -15 8 C-12.8222672 6.90859545 -10.64179647 5.8233743 -8.45703125 4.74609375 C-7.58433594 4.31425781 -6.71164062 3.88242188 -5.8125 3.4375 C-4.93207031 3.00308594 -4.05164063 2.56867188 -3.14453125 2.12109375 C-1.07630493 1.17598986 -1.07630493 1.17598986 0 0 Z " fill="#E9E9E9" transform="translate(382,73)"/>
<path d="M0 0 C4.52941176 6.79411765 4.52941176 6.79411765 6 10.5625 C7.02879159 13.07017951 8.29466672 14.90709098 10 17 C6.17387297 15.49687867 4.29908033 13.37198449 2 10 C0.49687084 6.31733355 0 4.01797629 0 0 Z " fill="#B1C2C6" transform="translate(49,58)"/>
<path d="M0 0 C0 3 0 3 -2.3125 5.4375 C-3.199375 6.283125 -4.08625 7.12875 -5 8 C-6.02813611 9.31175986 -7.04084432 10.6369893 -8 12 C-9.32 11.67 -10.64 11.34 -12 11 C-11.46890625 10.54109375 -10.9378125 10.0821875 -10.390625 9.609375 C-6.81675301 6.50506283 -3.28145941 3.41818688 0 0 Z " fill="#DCDCDC" transform="translate(299,53)"/>
<path d="M0 0 C0.78375 0.04125 1.5675 0.0825 2.375 0.125 C2.25 1.9375 2.25 1.9375 1.375 4.125 C-1.6875 5.875 -1.6875 5.875 -4.625 7.125 C-4.75 4.75 -4.75 4.75 -4.625 2.125 C-2.625 0.125 -2.625 0.125 0 0 Z " fill="#A6B4B7" transform="translate(41.625,39.875)"/>
<path d="M0 0 C3.63 0.33 7.26 0.66 11 1 C11 1.66 11 2.32 11 3 C10.06027344 3.09087891 10.06027344 3.09087891 9.1015625 3.18359375 C8.28429687 3.26738281 7.46703125 3.35117187 6.625 3.4375 C5.81289063 3.51871094 5.00078125 3.59992187 4.1640625 3.68359375 C1.95727195 3.89090114 1.95727195 3.89090114 0 5 C0 3.35 0 1.7 0 0 Z " fill="#A3ABAD" transform="translate(324,40)"/>
<path d="M0 0 C0.99 0 1.98 0 3 0 C3 0.66 3 1.32 3 2 C9.27 2 15.54 2 22 2 C22 2.33 22 2.66 22 3 C15.07 3 8.14 3 1 3 C0.67 2.01 0.34 1.02 0 0 Z " fill="#ACADAD" transform="translate(345,75)"/>
<path d="M0 0 C0.33 0 0.66 0 1 0 C1.04898437 1.18078125 1.09796875 2.3615625 1.1484375 3.578125 C1.22348879 5.13543937 1.29903561 6.69272991 1.375 8.25 C1.4059375 9.02730469 1.436875 9.80460937 1.46875 10.60546875 C1.72658242 16.07379907 1.72658242 16.07379907 4 21 C2.68 20.67 1.36 20.34 0 20 C0 13.4 0 6.8 0 0 Z " fill="#D4D4D4" transform="translate(393,57)"/>
<path d="M0 0 C2.31 0.33 4.62 0.66 7 1 C6.67 1.66 6.34 2.32 6 3 C4.68 3 3.36 3 2 3 C2 5.31 2 7.62 2 10 C1.01 10 0.02 10 -1 10 C-0.67 6.7 -0.34 3.4 0 0 Z " fill="#CACFD0" transform="translate(276,44)"/>
<path d="M0 0 C0.66 0 1.32 0 2 0 C2 0.66 2 1.32 2 2 C4.10448938 1.85890014 6.2085877 1.71195825 8.3125 1.5625 C9.48425781 1.48128906 10.65601563 1.40007812 11.86328125 1.31640625 C15.02590958 1.1132629 15.02590958 1.1132629 18 0 C18 0.99 18 1.98 18 3 C12.39 3 6.78 3 1 3 C0.67 2.01 0.34 1.02 0 0 Z " fill="#B7B7B7" transform="translate(255,74)"/>
<path d="M0 0 C2.15377564 2.62198774 3.40072174 4.64404172 4 8 C1.69 7.67 -0.62 7.34 -3 7 C-1.125 1.125 -1.125 1.125 0 0 Z " fill="#9FB2B6" transform="translate(185,51)"/>
<path d="M0 0 C0 0.33 0 0.66 0 1 C-1.62318979 1.36237263 -3.2486358 1.71465157 -4.875 2.0625 C-5.77992188 2.25972656 -6.68484375 2.45695312 -7.6171875 2.66015625 C-10 3 -10 3 -12 2 C-12 1.34 -12 0.68 -12 0 C-3.42857143 -1.28571429 -3.42857143 -1.28571429 0 0 Z " fill="#EDEDED" transform="translate(432,79)"/>
<path d="M0 0 C0.99 0 1.98 0 3 0 C2.34 1.32 1.68 2.64 1 4 C-3.62 4 -8.24 4 -13 4 C-13 3.67 -13 3.34 -13 3 C-9.04 3 -5.08 3 -1 3 C-0.67 2.01 -0.34 1.02 0 0 Z " fill="#B9B9B9" transform="translate(133,75)"/>
<path d="M0 0 C1 2 1 2 0.375 4.4375 C-1.27706844 7.51635481 -2.91798591 8.45899296 -6 10 C-4.6302836 6.00499382 -2.74277578 3.19990508 0 0 Z " fill="#B4BBBD" transform="translate(90,65)"/>
<path d="M0 0 C1.46300982 0.93018526 2.92025579 1.86944027 4.375 2.8125 C5.18710938 3.33457031 5.99921875 3.85664062 6.8359375 4.39453125 C9 6 9 6 11 9 C7.25983417 9 6.54723807 8.0658409 3.8125 5.625 C3.09707031 4.99851562 2.38164063 4.37203125 1.64453125 3.7265625 C0 2 0 2 0 0 Z " fill="#A9B1B3" transform="translate(103,66)"/>
<path d="M0 0 C2.18994248 3.28491373 2.35277339 4.83095639 2.625 8.6875 C2.69976562 9.68136719 2.77453125 10.67523438 2.8515625 11.69921875 C2.92503906 12.83810547 2.92503906 12.83810547 3 14 C0.65454672 11.65454672 0.04491112 10.04014162 -0.09765625 6.73828125 C-0.08605469 5.93777344 -0.07445312 5.13726562 -0.0625 4.3125 C-0.05347656 3.50425781 -0.04445312 2.69601563 -0.03515625 1.86328125 C-0.02355469 1.24839844 -0.01195312 0.63351563 0 0 Z " fill="#D2D5D5" transform="translate(46,48)"/>
<path d="M0 0 C2.97 0.33 5.94 0.66 9 1 C8.67 1.66 8.34 2.32 8 3 C5.35139573 3.59355614 2.70802678 3.74209269 0 4 C0 2.68 0 1.36 0 0 Z " fill="#A9A9A9" transform="translate(324,56)"/>
<path d="M0 0 C3 3.75 3 3.75 3 6 C1.02 6.33 -0.96 6.66 -3 7 C-1.125 1.125 -1.125 1.125 0 0 Z " fill="#A3B0B3" transform="translate(436,51)"/>
<path d="M0 0 C3.41459553 1.13819851 4.3324158 2.24005518 6.625 4.9375 C7.23601563 5.64777344 7.84703125 6.35804687 8.4765625 7.08984375 C10 9 10 9 11 11 C7.84164893 9.60249952 5.67727175 7.94801766 3.25 5.5 C2.63640625 4.8915625 2.0228125 4.283125 1.390625 3.65625 C0 2 0 2 0 0 Z " fill="#E3E3E3" transform="translate(13,50)"/>
<path d="M0 0 C0.33 0 0.66 0 1 0 C0.67 4.29 0.34 8.58 0 13 C-0.99 13 -1.98 13 -3 13 C-2.52060632 8.28596212 -2.03165952 4.33420699 0 0 Z " fill="#DBE7E9" transform="translate(300,19)"/>
<path d="M0 0 C2.31 0.33 4.62 0.66 7 1 C7 1.66 7 2.32 7 3 C2.545 3.495 2.545 3.495 -2 4 C-1.34 2.68 -0.68 1.36 0 0 Z " fill="#9DA7AA" transform="translate(69,41)"/>
<path d="M0 0 C0.33 0 0.66 0 1 0 C1 4.62 1 9.24 1 14 C0.01 14 -0.98 14 -2 14 C-2 13.01 -2 12.02 -2 11 C-1.34 11 -0.68 11 0 11 C0 7.37 0 3.74 0 0 Z " fill="#E0E1E1" transform="translate(252,55)"/>
<path d="M0 0 C3.71888239 0.50712033 6.73454239 1.11608215 10 3 C9.67 4.32 9.34 5.64 9 7 C8.443125 6.360625 7.88625 5.72125 7.3125 5.0625 C4.77933439 2.80319013 3.31658576 2.36850953 0 2 C0 1.34 0 0.68 0 0 Z " fill="#B2BCBE" transform="translate(365,44)"/>
<path d="M0 0 C0.66 0.33 1.32 0.66 2 1 C2 1.99 2 2.98 2 4 C-0.64 4.66 -3.28 5.32 -6 6 C-2.25 1.125 -2.25 1.125 0 0 Z " fill="#A6AAAB" transform="translate(441,69)"/>
<path d="M0 0 C0.66 0.33 1.32 0.66 2 1 C2 1.99 2 2.98 2 4 C-0.64 4.66 -3.28 5.32 -6 6 C-2.25 1.125 -2.25 1.125 0 0 Z " fill="#A6AAAB" transform="translate(190,69)"/>
<path d="M0 0 C4.03384128 2.07143201 5.92856799 3.96615872 8 8 C6.68 7.67 5.36 7.34 4 7 C4 6.01 4 5.02 4 4 C3.01 4 2.02 4 1 4 C0.67 2.68 0.34 1.36 0 0 Z " fill="#E7E7E7" transform="translate(101,69)"/>
<path d="M0 0 C0.33 0 0.66 0 1 0 C1.05391993 1.79133978 1.09275571 3.58313899 1.125 5.375 C1.14820313 6.37273438 1.17140625 7.37046875 1.1953125 8.3984375 C1 11 1 11 -1 13 C-1.5625 11.0625 -1.5625 11.0625 -2 9 C-1.67 8.67 -1.34 8.34 -1 8 C-0.76924918 6.65252916 -0.58846937 5.29622435 -0.4375 3.9375 C-0.293125 2.638125 -0.14875 1.33875 0 0 Z " fill="#D6D6D6" transform="translate(300,24)"/>
<path d="M0 0 C2.97 0 5.94 0 9 0 C6.62216162 2.37783838 5.27926335 2.59009208 2 3 C1.34 2.67 0.68 2.34 0 2 C0 1.34 0 0.68 0 0 Z " fill="#ECECEC" transform="translate(169,79)"/>
<path d="M0 0 C1.98 0.495 1.98 0.495 4 1 C4 1.99 4 2.98 4 4 C2.35 4 0.7 4 -1 4 C-0.67 2.68 -0.34 1.36 0 0 Z " fill="#DADDDE" transform="translate(184,59)"/>
</svg>
